#!OML:ASF F:\VICON\USERDATA\INSTALL\rory3\rory3.ASF
:FULLY-SPECIFIED
:DEGREES
3310
root 0.876917 17.5616 3.28999 2.71301 28.086 -13.8694
lowerback 5.55047 4.43349 0.9289
upperback -0.465704 5.79282 -6.82066
thorax -2.78465 2.85629 -8.10296
lowerneck -25.7782 -15.6544 -12.6699
upperneck -3.52658 -18.3393 21.6505
head 6.29485 -7.42122 6.34944
rclavicle 4.21423e-014 1.90833e-014
rhumerus 70.2787 -19.5126 -24.8929
rradius 40.6965
rwrist 48.4018
rhand -52.7093 -3.98806
rfingers 7.12502
rthumb -25.1873 -32.3461
lclavicle 4.21423e-014 1.90833e-014
lhumerus -43.2892 21.7163 50.6094
lradius 39.3421
lwrist -3.73114
lhand -16.4073 26.4714
lfingers 7.12502
lthumb 9.80721 416.223
rfemur -3.42055 -9.0413 22.2279
rtibia 16.3075
rfoot -21.1917 -17.9848
rtoes 5.09238
lfemur -28.0299 -2.28229 -0.956096
ltibia 40.8112
lfoot -19.598 -5.98016
ltoes -22.0758
3311
root 0.874349 17.5603 3.28595 2.71875 28.1139 -13.8636
lowerback 5.59487 4.37637 0.9052
upperback -0.420794 5.71565 -6.8261
thorax -2.77559 2.81901 -8.09251
lowerneck -25.9627 -15.6763 -12.6051
upperneck -3.48854 -18.3732 21.6589
head 6.33323 -7.42266 6.32935
rclavicle 1.74931e-014 9.54166e-015
rhumerus 70.2693 -19.3342 -24.5251
rradius 40.8223
rwrist 48.6491
rhand -52.911 -4.41891
rfingers 7.12502
rthumb -25.3805 -32.7497
lclavicle 1.74931e-014 9.54166e-015
lhumerus -43.2544 21.6488 50.7558
lradius 39.4098
lwrist -3.53571
lhand -16.047 25.8587
lfingers 7.12502
lthumb 10.1548 415.594
rfemur -3.45563 -9.22202 22.2074
rtibia 16.3646
rfoot -21.1368 -17.7991
rtoes 5.38552
lfemur -28.0693 -2.38075 -0.951411
ltibia 40.8409
lfoot -19.5887 -5.9074
ltoes -22.2322
3312
root 0.871132 17.5589 3.28275 2.64314 28.1071 -13.9797
lowerback 5.67722 4.34369 0.97285
upperback -0.410468 5.67512 -6.79429
thorax -2.81349 2.79662 -8.10215
lowerneck -26.0835 -15.6972 -12.6626
upperneck -3.39259 -18.402 21.77
head 6.40663 -7.41667 6.36182
rclavicle 4.45278e-014 -6.36111e-014
rhumerus 70.198 -19.1417 -24.2591
rradius 40.9636
rwrist 48.8435
rhand -53.0503 -4.23375
rfingers 7.12502
rthumb -25.5139 -32.5455
lclavicle 4.45278e-014 -6.36111e-014
lhumerus -43.1643 21.3461 51.153
lradius 39.5941
lwrist -3.09287
lhand -16.6834 26.3584
lfingers 7.12502
lthumb 9.54082 416.122
rfemur -3.46596 -9.28925 22.3017
rtibia 16.4368
rfoot -21.1357 -17.636
rtoes 5.70763
lfemur -28.0641 -2.4193 -0.827425
ltibia 40.8446
lfoot -19.4648 -5.92388
ltoes -21.6987
3313
root 0.867856 17.5595 3.28146 2.56998 28.0255 -14.03
lowerback 5.73822 4.34103 0.959573
upperback -0.384752 5.67012 -6.7822
thorax -2.82411 2.79431 -8.08569
lowerneck -26.2665 -15.7054 -12.6941
upperneck -3.18945 -18.4323 21.8605
head 6.51835 -7.40449 6.3803
rclavicle 1.80496e-013 -6.04305e-014
rhumerus 70.1389 -18.9658 -24.0757
rradius 41.0828
rwrist 49.0278
rhand -53.0554 -3.90472
rfingers 7.12502
rthumb -25.5188 -32.2157
lclavicle 1.80496e-013 -6.04305e-014
lhumerus -43.0411 21.0518 51.5742
lradius 39.6883
lwrist -2.8934
lhand -17.5766 27.0968
lfingers 7.12502
lthumb 8.67896 416.898
rfemur -3.47286 -9.35676 22.3232
rtibia 16.5051
rfoot -20.8739 -17.6128
rtoes 4.93338
lfemur -27.9688 -2.48088 -0.758573
ltibia 40.8127
lfoot -19.1587 -5.95238
ltoes -20.1201
3314
root 0.865292 17.5614 3.28255 2.62777 27.8843 -13.9174
lowerback 5.71253 4.36225 0.806437
upperback -0.39054 5.6874 -6.81199
thorax -2.82515 2.8049 -8.02935
lowerneck -26.2019 -15.685 -12.7288
upperneck -3.16832 -18.4218 21.9654
head 6.5337 -7.39697 6.4225
rclavicle 1.4233e-013 -1.30403e-013
rhumerus 70.1217 -18.7443 -24.0578
rradius 41.1844
rwrist 49.291
rhand -53.0252 -3.55285
rfingers 7.12502
rthumb -25.4899 -31.868
lclavicle 1.4233e-013 -1.30403e-013
lhumerus -43.0443 20.7558 51.7654
lradius 39.7652
lwrist -2.56904
lhand -17.5448 26.5699
lfingers 7.12502
lthumb 8.70959 416.37
rfemur -3.51619 -9.42818 22.1855
rtibia 16.5439
rfoot -20.6341 -17.567
rtoes 4.51745
lfemur -27.8619 -2.5702 -0.839919
ltibia 40.7488
lfoot -19.1482 -5.76953
ltoes -20.0068
3315
root 0.861411 17.5656 3.27938 2.72749 27.7347 -13.7752
lowerback 5.68522 4.38556 0.65059
upperback -0.394839 5.70734 -6.85467
thorax -2.82237 2.81706 -7.98531
lowerneck -26.131 -15.6509 -12.7086
upperneck -3.2331 -18.3871 22.0321
head 6.50626 -7.38441 6.45104
rclavicle -4.85035e-014 8.90555e-014
rhumerus 69.9221 -18.587 -23.7519
rradius 41.3328
rwrist 49.3188
rhand -53.2385 -3.83537
rfingers 7.12502
rthumb -25.6942 -32.1212
lclavicle -4.85035e-014 8.90555e-014
lhumerus -43.0525 20.6852 51.7565
lradius 39.8585
lwrist -2.05848
lhand -17.0125 25.8593
lfingers 7.12502
lthumb 9.2233 415.638
rfemur -3.59708 -9.40247 22.0275
rtibia 16.6293
rfoot -20.624 -17.3627
rtoes 4.42532
lfemur -27.7933 -2.68367 -0.95575
ltibia 40.6562
lfoot -19.4179 -5.32649
ltoes -21.6177
3316
root 0.857794 17.5696 3.27168 2.73121 27.6505 -13.7948
lowerback 5.6981 4.38523 0.664647
upperback -0.36825 5.70881 -6.84459
thorax -2.8013 2.81859 -7.98201
lowerneck -26.1559 -15.6446 -12.618
upperneck -3.26836 -18.3892 21.9766
head 6.48255 -7.3896 6.41925
rclavicle -8.18993e-014 1.59028e-014
rhumerus 69.7007 -18.5151 -23.424
rradius 41.5106
rwrist 49.3585
rhand -53.3577 -3.59635
rfingers 7.12502
rthumb -25.8083 -31.8656
lclavicle -8.18993e-014 1.59028e-014
lhumerus -42.9287 20.4342 52.0598
lradius 39.9966
lwrist -1.89992
lhand -17.3024 27.0116
lfingers 7.12502
lthumb 8.9435 416.802
rfemur -3.6894 -9.44216 22.0418
rtibia 16.7247
rfoot -20.4803 -17.2263
rtoes 4.26032
lfemur -27.766 -2.88498 -0.900036
ltibia 40.5876
lfoot -19.5056 -4.94121
ltoes -22.5957
3317
root 0.854664 17.5698 3.26252 2.81911 27.5953 -13.7241
lowerback 5.67598 4.36813 0.631944
upperback -0.35138 5.68513 -6.84702
thorax -2.77757 2.80811 -7.96122
lowerneck -26.1285 -15.6548 -12.6363
upperneck -3.33143 -18.3975 22.0399
head 6.47081 -7.39421 6.44196
rclavicle 1.43125e-014 -3.18055e-015
rhumerus 69.3771 -18.5515 -22.7294
rradius 41.7676
rwrist 48.7536
rhand -53.3938 -3.52556
rfingers 7.12502
rthumb -25.843 -31.7898
lclavicle 1.43125e-014 -3.18055e-015
lhumerus -42.8291 19.9325 52.5295
lradius 40.2423
lwrist -2.02277
lhand -17.6414 28.547
lfingers 7.12502
lthumb 8.61645 418.351
rfemur -3.83344 -9.4575 21.9719
rtibia 16.8106
rfoot -20.3649 -17.0996
rtoes 4.37734
lfemur -27.7998 -3.16494 -0.920715
ltibia 40.5494
lfoot -19.4796 -4.6097
ltoes -22.5659
3318
root 0.851263 17.5689 3.25493 2.89789 27.4445 -13.7528
lowerback 5.61065 4.36702 0.672585
upperback -0.414387 5.6852 -6.83413
thorax -2.80399 2.80556 -7.9681
lowerneck -25.9657 -15.6129 -12.7459
upperneck -3.35914 -18.3505 22.2428
head 6.4725 -7.37203 6.53778
rclavicle 6.2816e-014 6.36111e-015
rhumerus 68.9672 -18.6021 -21.8095
rradius 41.9947
rwrist 47.8533
rhand -53.3479 -3.8472
rfingers 7.12502
rthumb -25.799 -32.1178
lclavicle 6.2816e-014 6.36111e-015
lhumerus -42.9269 19.4532 52.7756
lradius 40.5597
lwrist -2.08916
lhand -17.5299 29.116
lfingers 7.12502
lthumb 8.72401 418.916
rfemur -4.00996 -9.41551 22.0055
rtibia 16.88
rfoot -20.2944 -16.9563
rtoes 4.53745
lfemur -27.8489 -3.32135 -0.837065
ltibia 40.5606
lfoot -19.4635 -4.33463
ltoes -22.7219
3319
root 0.847593 17.5683 3.24693 2.89599 27.2724 -13.8027
lowerback 5.56705 4.37926 0.750391
upperback -0.442914 5.70667 -6.83262
thorax -2.79883 2.81482 -8.00948
lowerneck -25.9467 -15.5585 -12.6126
upperneck -3.1933 -18.3425 22.1491
head 6.49691 -7.37159 6.48771
rclavicle -8.66701e-014 1.49486e-013
rhumerus 68.7105 -18.553 -21.5057
rradius 42.1421
rwrist 47.7217
rhand -53.2292 -4.04711
rfingers 7.12502
rthumb -25.6853 -32.3342
lclavicle -8.66701e-014 1.49486e-013
lhumerus -42.9471 19.1274 52.9139
lradius 40.8167
lwrist -2.15676
lhand -17.377 29.4642
lfingers 7.12502
lthumb 8.87151 419.258
rfemur -4.10038 -9.45386 22.0386
rtibia 16.9255
rfoot -20.2015 -16.7857
rtoes 4.26374
lfemur -27.8388 -3.43546 -0.745395
ltibia 40.5944
lfoot -19.4355 -4.09353
ltoes -22.792
3320
root 0.845305 17.5668 3.24012 2.85645 27.1677 -13.745
lowerback 5.59392 4.38006 0.757005
upperback -0.399465 5.70953 -6.83391
thorax -2.76739 2.81785 -8.01456
lowerneck -26.1327 -15.5287 -12.2968
upperneck -2.96326 -18.3731 21.7808
head 6.5194 -7.3909 6.3083
rclavicle -8.50798e-014 4.13472e-014
rhumerus 68.5517 -18.4434 -21.6121
rradius 42.2686
rwrist 48.0255
rhand -53.2475 -4.05778
rfingers 7.12502
rthumb -25.7028 -32.3423
lclavicle -8.50798e-014 4.13472e-014
lhumerus -42.7782 19.007 53.072
lradius 40.8555
lwrist -2.12046
lhand -17.1097 29.269
lfingers 7.12502
lthumb 9.12951 419.051
rfemur -4.00306 -9.65688 21.9453
rtibia 16.8451
rfoot -19.8759 -16.6779
rtoes 3.65187
lfemur -27.7854 -3.55235 -0.804643
ltibia 40.6686
lfoot -19.4357 -3.85429
ltoes -22.9748
3321
root 0.839681 17.5622 3.23572 2.64917 27.059 -13.8866
lowerback 5.66048 4.37187 0.927787
upperback -0.256038 5.71693 -6.7388
thorax -2.64713 2.82517 -8.00667
lowerneck -26.4281 -15.5663 -12.2184
upperneck -2.89558 -18.4006 21.6029
head 6.55245 -7.39265 6.22508
rclavicle -8.42847e-014 2.54444e-014
rhumerus 68.4374 -18.4669 -21.4889
rradius 42.349
rwrist 48.0145
rhand -53.5175 -4.4411
rfingers 7.12502
rthumb -25.9614 -32.688
lclavicle -8.42847e-014 2.54444e-014
lhumerus -42.3045 19.3247 53.2163
lradius 40.4671
lwrist -2.21702
lhand -16.8996 27.7378
lfingers 7.12502
lthumb 9.3322 417.511
rfemur -3.83418 -9.66008 22.0596
rtibia 16.7528
rfoot -19.6823 -16.6572
rtoes 3.56279
lfemur -27.663 -3.56408 -0.65836
ltibia 40.7482
lfoot -19.4982 -3.73998
ltoes -23.1006
